<svg data-v-0dd9719b="" version="1.0" xmlns="http://www.w3.org/2000/svg" xmlns:xlink="http://www.w3.org/1999/xlink" width="100%" height="100%" viewBox="0 0 340.000000 250.000000" preserveAspectRatio="xMidYMid meet" color-interpolation-filters="sRGB" style="margin: auto;"> <rect data-v-0dd9719b="" x="0" y="0" width="100%" height="100%" fill="#fff" fill-opacity="1" class="background"></rect> <rect data-v-0dd9719b="" x="0" y="0" width="100%" height="100%" fill="url(#watermark)" fill-opacity="1" class="watermarklayer"></rect> <g data-v-0dd9719b="" fill="#009fe8" class="icon-text-wrapper icon-svg-group iconsvg" transform="translate(48.454994201660156,94.99699974060059)"><g class="iconsvg-imagesvg" transform="translate(0,0)"><g><rect fill="#009fe8" fill-opacity="0" stroke-width="2" x="0" y="0" width="60" height="60.006000600060005" class="image-rect"></rect> <svg x="0" y="0" width="60" height="60.006000600060005" filtersec="colorsb7883245919" class="image-svg-svg primary" style="overflow: visible;"><svg version="1.1" id="图层_1" xmlns="http://www.w3.org/2000/svg" xmlns:xlink="http://www.w3.org/1999/xlink" x="0px" y="0px" viewBox="0.9100017547607422 0.39000001549720764 98.08999633789062 98.10000610351562" enable-background="new 0 0 100 99" xml:space="preserve">
<path fill="#133FA0" d="M76.55,0.39h-53.2c-12.39,0-22.44,10.05-22.44,22.45v53.2c0,12.4,10.04,22.45,22.44,22.45h53.2
	C88.96,98.48,99,88.43,99,76.04v-53.2C99,10.44,88.96,0.39,76.55,0.39z M95.2,43.3l-15.43,40.7c-3.59,9.49-14.19,14.27-23.68,10.67
	l-40.7-15.42C5.9,75.66,1.12,65.05,4.72,55.57l15.43-40.7C23.73,5.38,34.34,0.6,43.82,4.2l40.7,15.42
	C94.02,23.21,98.79,33.82,95.2,43.3z"></path>
<path fill="#009FE8" d="M81.24,66.41c0,7.9-6.41,14.32-14.32,14.32H32.99c-7.92,0-14.32-6.42-14.32-14.32V32.47
	c0-7.91,6.4-14.32,14.32-14.32h33.93c7.91,0,14.32,6.41,14.32,14.32V66.41z"></path>
</svg></svg> <!----></g></g> <g transform="translate(67,1.961751937866211)"><g data-gra="path-name" fill-rule="" class="tp-name iconsvg-namesvg" transform="translate(0,0)"><g transform="scale(1)"><g><path d="M42.58-21.4L42.58-18.28 22.68-18.28Q21.18-8.31 15.56-2.9L15.56-2.9Q11.25 1.19 4.09 3.52L4.09 3.52Q3.43 2.07 2.07 0.79L2.07 0.79Q2.02 0.75 1.98 0.7L1.98 0.7Q12.61-2.55 16.66-9.98L16.66-9.98Q18.5-13.45 19.29-18.28L19.29-18.28 2.5-18.28 2.5-21.4 19.73-21.4Q20.08-25.14 20.17-31.51L20.17-31.51 5.32-31.51 5.32-34.58 39.99-34.58 39.99-31.51 23.55-31.51Q23.47-25.62 23.07-21.4L23.07-21.4 42.58-21.4ZM29.27-0.31L29.27-0.31 37.22-0.31Q38.8-0.31 39.29-1.45L39.29-1.45Q39.81-2.77 40.03-7.47L40.03-7.47Q41.18-6.59 43.29-6.02L43.29-6.02Q42.89-0.13 41.48 1.54L41.48 1.54Q40.3 2.94 37.44 2.94L37.44 2.94 28.96 2.94Q24.96 2.94 23.82 1.45L23.82 1.45Q23.03 0.31 23.03-2.15L23.03-2.15 23.03-16.44 26.46-16.44 26.46-2.11Q26.46-0.79 27.29-0.48L27.29-0.48Q27.91-0.31 29.27-0.31ZM63.37-32.48L63.37-29.4 52.87-29.4Q50.67-25.88 48.47-23.55L48.47-23.55Q47.9-25.14 46.71-26.72L46.71-26.72Q50.71-30.59 53-36.91L53-36.91Q53.13-37.27 53.22-37.53L53.22-37.53 56.21-36.69Q55.72-35.07 54.49-32.48L54.49-32.48 63.37-32.48ZM57.35-12.44L57.35-2.94 62.75-5.63Q63.06-3.65 63.37-2.72L63.37-2.72Q54.54 2.02 53.88 2.55L53.88 2.55Q53.7 2.68 53.61 2.77L53.61 2.77 53.57 2.59Q53.04 1.54 51.94 0.48L51.94 0.48Q54.18-1.1 54.4-3.38L54.4-3.38Q54.45-3.6 54.45-3.82L54.45-3.82 54.45-12.44 47.86-12.44 47.86-15.47 54.45-15.47 54.45-21.53 50.1-21.53 50.1-24.57 62.05-24.57 62.05-21.53 57.35-21.53 57.35-15.47 63.06-15.47 63.06-12.44 57.35-12.44ZM82-26.37L68.86-26.37 68.86-22.24 82-22.24 82-26.37ZM82-33.05L68.86-33.05 68.86-28.96 82-28.96 82-33.05ZM70.8-15.82L70.8-15.82 87.1-15.82Q87.1-15.78 87.01-14.46L87.01-14.46Q86.44-1.36 85.34 1.27L85.34 1.27Q85.12 1.8 84.86 2.11L84.86 2.11Q83.89 3.25 82.4 3.38L82.4 3.38Q80.55 3.56 78.4 3.38L78.4 3.38Q78.22 1.67 77.56 0.57L77.56 0.57Q79.19 0.7 81.12 0.7L81.12 0.7Q82 0.66 82.4 0.22L82.4 0.22Q83.45-0.92 84.11-12.96L84.11-12.96Q84.11-13.01 84.11-13.05L84.11-13.05 81.21-13.05Q78.49-2.46 72.29 3.47L72.29 3.47Q71.37 2.5 70.14 1.67L70.14 1.67Q75.89-3.34 78.53-13.05L78.53-13.05 75.19-13.05Q72.16-5.36 66.58-0.48L66.58-0.48Q66.23-0.18 65.96 0.04L65.96 0.04Q64.95-1.05 63.94-1.8L63.94-1.8Q69.35-5.93 72.29-12.83L72.29-12.83Q72.33-12.96 72.38-13.05L72.38-13.05 69.04-13.05Q66.8-10.02 64.86-8.35L64.86-8.35Q64.2-9.05 62.62-10.2L62.62-10.2Q67.02-13.89 69.57-19.51L69.57-19.51 65.87-19.51 65.87-35.77 85.08-35.77 85.08-19.51 72.64-19.51Q71.85-17.58 70.8-15.82ZM97.69-23.12L122.7-23.12 122.7-26.94 93.12-26.94 93.12-29.79 122.7-29.79 122.7-33.35 98.13-33.35 98.13-36.12 126.04-36.12 126.04-29.79 131.79-29.79 131.79-26.94 126.04-26.94 126.04-19.12 122.7-19.12 122.7-20.35 97.69-20.35 97.69-23.12ZM122.39-7.21L122.39-7.21 119.75-8.48Q123-12.26 125.64-16.88L125.64-16.88Q125.73-17.01 125.77-17.09L125.77-17.09 129.02-15.73Q125.46-10.5 122.39-7.21ZM97.16-6.42L97.16-6.42 94.48-8.35Q99.32-10.85 100.63-16.88L100.63-16.88 103.58-15.91Q101.91-9.67 98.31-7.12L98.31-7.12Q97.73-6.72 97.16-6.42ZM110.57-19.38L110.57-19.38 113.86-19.38Q113.77-18.15 113.69-17.62L113.69-17.62Q115.22-8.48 120.06-4.39L120.06-4.39Q124.54-0.57 133.2 0.48L133.2 0.48Q132.19 1.45 131.26 3.47L131.26 3.47Q120.94 1.89 116.19-3.65L116.19-3.65Q113.82-6.46 112.37-10.59L112.37-10.59Q110.39-3.87 104.68-0.4L104.68-0.4Q100.46 2.11 93.69 3.47L93.69 3.47Q93.12 2.07 91.98 0.7L91.98 0.7Q102.7-1.32 106.74-6.37L106.74-6.37Q109.51-9.93 110.35-17.01L110.35-17.01Q110.48-18.11 110.57-19.38ZM170.02-27.95L145.24-27.95 145.24-24.74 170.02-24.74 170.02-27.95ZM170.02-33.49L145.24-33.49 145.24-30.28 170.02-30.28 170.02-33.49ZM170.24-14.5L170.24-14.5 173.32-13.58Q170.99-8.61 166.95-4.61L166.95-4.61Q170.38-0.31 173.58-0.09L173.58-0.09Q174.73-0.13 175.12-2.24L175.12-2.24Q175.34-3.3 175.43-5.1L175.43-5.1Q176.62-4 178.07-3.6L178.07-3.6Q177.54 1.27 175.83 2.42L175.83 2.42Q174.9 3.03 173.36 3.03L173.36 3.03Q168.88 3.03 164.97-1.98L164.97-1.98Q164.79-2.2 164.62-2.42L164.62-2.42Q160.93 0.7 156.09 3.08L156.09 3.08Q155 1.58 153.68 0.57L153.68 0.57Q158.77-1.63 162.91-5.01L162.91-5.01Q160.09-9.76 158.86-15.47L158.86-15.47 144.1-15.47 144.1-12.96Q144.1-11.91 144.05-11.38L144.05-11.38 155.43-11.38Q155.43-11.34 155.39-10.06L155.39-10.06Q155.04-2.24 154.07-0.92L154.07-0.92Q154.03-0.83 153.98-0.79L153.98-0.79Q153.06 0.13 151.48 0.26L151.48 0.26Q149.33 0.44 146.56 0.26L146.56 0.26Q146.38-1.45 145.68-2.59L145.68-2.59Q147.61-2.42 149.99-2.42L149.99-2.42Q151-2.46 151.3-2.77L151.3-2.77Q151.83-3.43 152.14-8.57L152.14-8.57 143.88-8.57Q143.04-0.83 139.61 3.6L139.61 3.6Q138.6 2.5 137.07 1.67L137.07 1.67Q136.98 1.63 136.93 1.58L136.93 1.58Q140.8-3.52 140.8-13.05L140.8-13.05 140.8-18.33 158.29-18.33Q157.98-19.95 157.85-22.15L157.85-22.15 161.15-22.15Q161.28-20.17 161.54-18.33L161.54-18.33 170.33-18.33Q167.96-19.82 164.58-21.14L164.58-21.14 165.72-22.28 142.03-22.28 142.03-35.95 173.32-35.95 173.32-22.28 167.7-22.28Q170.95-20.92 173.14-19.47L173.14-19.47 172.09-18.33 177.41-18.33 177.41-15.47 162.11-15.47Q163.08-11.34 165.28-7.29L165.28-7.29Q168.27-10.46 170.24-14.5Z" transform="translate(-1.9800000190734863, 37.529998779296875)"></path></g> <!----> <!----> <!----> <!----> <!----> <!----> <!----></g></g> <g data-gra="path-slogan" fill-rule="" class="tp-slogan iconsvg-slogansvg" fill="#009fe8" transform="translate(5,47.12999725341797)"><rect x="0" height="1" y="3.9750003814697266" width="28.085006713867188"></rect> <rect height="1" y="3.9750003814697266" width="28.085006713867188" x="138.0050048828125"></rect> <g transform="translate(31.085006713867188,0)"><g transform="scale(1)"><path d="M5.67-7.13L5.63-7.13L3.66 0L2.44 0L0.19-8.58L1.41-8.58L3.05-1.59L3.09-1.59L5.02-8.58L6.28-8.58L8.20-1.59L8.25-1.59L9.84-8.58L11.11-8.58L8.86 0L7.64 0L5.67-7.13ZM17.86-3.19L17.86-8.58L19.03-8.58L19.03-3.05Q18.89 0.05 15.52 0.14L15.52 0.14Q12.38 0.05 12.23-2.86L12.23-2.86L12.23-8.58L13.41-8.58L13.41-3.19Q13.45-0.84 15.56-0.80L15.56-0.80Q17.86-0.84 17.86-3.19L17.86-3.19ZM27.56-8.58L24.66-4.41L27.70 0L26.25 0L23.91-3.52L21.56 0L20.16 0L23.25-4.41L20.34-8.58L21.80-8.58L23.95-5.30L26.16-8.58L27.56-8.58ZM28.97-8.58L30.14-8.58L30.14 0L28.97 0L28.97-8.58ZM35.44-8.58L36.61-8.58L36.61-1.03L40.97-1.03L40.97 0L35.44 0L35.44-8.58ZM42.28-8.58L43.45-8.58L43.45 0L42.28 0L42.28-8.58ZM46.83-8.58L51.14-1.64L51.14-8.58L52.27-8.58L52.27 0L50.95 0L46.59-6.94L46.55-6.94L46.55 0L45.42 0L45.42-8.58L46.83-8.58ZM60.47-3.61L57.84-3.61L57.84-4.59L61.59-4.59L61.59 0L60.84 0L60.56-1.08Q59.58 0.09 57.75 0.14L57.75 0.14Q56.02 0.14 55.08-0.75L55.08-0.75Q53.67-2.06 53.72-4.36L53.72-4.36Q54.05-8.63 57.80-8.81L57.80-8.81Q60.98-8.63 61.45-6L61.45-6L60.33-6Q59.86-7.78 57.75-7.83L57.75-7.83Q55.08-7.64 54.94-4.31L54.94-4.31Q54.94-0.75 57.80-0.75L57.80-0.75Q58.83-0.75 59.58-1.31L59.58-1.31Q60.52-2.06 60.47-3.61L60.47-3.61ZM69.66-6.09L69.66-6.09L68.58-6.09Q68.48-7.73 66.42-7.83L66.42-7.83Q64.50-7.78 64.50-6.33L64.50-6.33Q64.50-5.39 65.53-5.25L65.53-5.25L67.97-4.69Q69.89-4.22 69.89-2.34L69.89-2.34Q69.84 0.05 66.52 0.14L66.52 0.14Q64.69 0.14 63.94-0.61L63.94-0.61Q63-1.31 63.05-2.77L63.05-2.77L64.17-2.77Q64.22-0.80 66.52-0.75L66.52-0.75Q68.77-0.80 68.81-2.20L68.81-2.20Q69-3.38 66.94-3.75L66.94-3.75L65.16-4.13Q63.33-4.64 63.33-6.19L63.33-6.19Q63.47-8.72 66.33-8.81L66.33-8.81Q69.56-8.81 69.66-6.09ZM72.52-5.06L77.02-5.06L77.02-8.58L78.19-8.58L78.19 0L77.02 0L77.02-3.98L72.52-3.98L72.52 0L71.34 0L71.34-8.58L72.52-8.58L72.52-5.06ZM81.28-1.03L86.44-1.03L86.44 0L80.11 0L80.11-8.58L86.34-8.58L86.34-7.59L81.28-7.59L81.28-4.92L85.97-4.92L85.97-3.89L81.28-3.89L81.28-1.03ZM89.34-8.58L93.66-1.64L93.66-8.58L94.78-8.58L94.78 0L93.47 0L89.11-6.94L89.06-6.94L89.06 0L87.94 0L87.94-8.58L89.34-8.58ZM102.98-3.61L100.36-3.61L100.36-4.59L104.11-4.59L104.11 0L103.36 0L103.08-1.08Q102.09 0.09 100.27 0.14L100.27 0.14Q98.53 0.14 97.59-0.75L97.59-0.75Q96.19-2.06 96.23-4.36L96.23-4.36Q96.56-8.63 100.31-8.81L100.31-8.81Q103.50-8.63 103.97-6L103.97-6L102.84-6Q102.38-7.78 100.27-7.83L100.27-7.83Q97.59-7.64 97.45-4.31L97.45-4.31Q97.45-0.75 100.31-0.75L100.31-0.75Q101.34-0.75 102.09-1.31L102.09-1.31Q103.03-2.06 102.98-3.61L102.98-3.61Z" transform="translate(-0.1875, 8.8125)"></path></g></g></g></g></g><defs v-gra="od"></defs></svg>